<svg width="360" height="800" viewBox="0 0 360 800" fill="none" xmlns="http://www.w3.org/2000/svg">
<g clip-path="url(#clip0_599_10890)">
<rect width="360" height="800" fill="white"/>
<rect width="360" height="800" fill="white"/>
<path fill-rule="evenodd" clip-rule="evenodd" d="M236.378 -278.709C331.89 -294.848 426.103 -255.333 503.922 -197.618C572.693 -146.613 595.598 -63.6922 631.259 14.1601C679.694 119.895 779.735 218.612 745.492 329.747C708.001 451.424 588.68 550.696 462.024 563.413C343.388 575.324 269.834 446.553 165.985 387.933C60.0225 328.119 -101.615 336.039 -143.32 221.708C-185.517 106.032 -90.0026 -11.7637 -15.5896 -109.835C47.9503 -193.576 132.742 -261.198 236.378 -278.709Z" fill="#FFB775"/>
<path fill-rule="evenodd" clip-rule="evenodd" d="M655.439 -678.709C559.927 -694.848 465.714 -655.333 387.895 -597.618C319.124 -546.613 296.219 -463.692 260.557 -385.84C212.123 -280.105 112.082 -181.388 146.324 -70.253C183.816 51.4241 303.137 150.696 429.793 163.413C548.429 175.324 621.983 46.5531 725.831 -12.0672C831.794 -71.8812 993.432 -63.961 1035.14 -178.292C1077.33 -293.968 981.819 -411.764 907.406 -509.835C843.867 -593.576 759.075 -661.198 655.439 -678.709Z" fill="#FF8210"/>
</g>
<defs>
<clipPath id="clip0_599_10890">
<rect width="360" height="800" fill="white"/>
</clipPath>
</defs>
</svg>
