<svg width="240" height="240" viewBox="0 0 240 240" fill="none" xmlns="http://www.w3.org/2000/svg">
<g clip-path="url(#clip0_146_7258)">
<path d="M240 0H0V240H240V0Z" fill="#F8F9FA"/>
<path d="M46.0535 169.773L172.405 43.4218C172.405 43.4218 188.014 22.4798 202.595 37.06C217.175 51.6402 196.233 67.2497 196.233 67.2497L69.8815 193.601C69.8815 193.601 36.6399 211.252 32.5214 207.133C28.403 203.015 46.0535 169.773 46.0535 169.773Z" fill="#FF8210"/>
<path d="M46.0535 169.773L172.405 43.4218M46.0535 169.773C46.0535 169.773 28.403 203.015 32.5214 207.133C36.6399 211.252 69.8815 193.601 69.8815 193.601M46.0535 169.773L57.9673 181.687L69.8815 193.601M172.405 43.4218L196.233 67.2497M172.405 43.4218C172.405 43.4218 188.014 22.4798 202.595 37.06C217.175 51.6402 196.233 67.2497 196.233 67.2497M69.8815 193.601L196.233 67.2497M196.233 67.2497C196.233 67.2497 204.966 75.2672 196.233 84C187.5 92.7328 158.983 122 158.983 122" stroke="#212529" stroke-width="7" stroke-linecap="round" stroke-linejoin="round"/>
</g>
<defs>
<clipPath id="clip0_146_7258">
<rect width="240" height="240" rx="30" fill="white"/>
</clipPath>
</defs>
</svg>
