<svg width="113" height="15" viewBox="0 0 113 15" fill="none" xmlns="http://www.w3.org/2000/svg">
<path d="M9.01011 12.144C8.47411 12.144 7.98611 12.048 7.54611 11.856C7.10611 11.664 6.72811 11.39 6.41211 11.034C6.10011 10.678 5.86211 10.254 5.69811 9.762L7.24611 9.18C7.43011 9.572 7.68011 9.894 7.99611 10.146C8.31211 10.394 8.66411 10.518 9.05211 10.518C9.45211 10.518 9.77211 10.438 10.0121 10.278C10.2521 10.118 10.3721 9.886 10.3721 9.582C10.3721 9.374 10.3021 9.202 10.1621 9.066C10.0221 8.93 9.83011 8.812 9.58611 8.712C9.34211 8.608 9.06211 8.504 8.74611 8.4C8.43411 8.296 8.11811 8.182 7.79811 8.058C7.47811 7.93 7.18411 7.772 6.91611 7.584C6.64811 7.396 6.43211 7.158 6.26811 6.87C6.10811 6.578 6.02811 6.218 6.02811 5.79C6.02811 5.366 6.14011 4.978 6.36411 4.626C6.59211 4.27 6.92011 3.986 7.34811 3.774C7.78011 3.562 8.30211 3.456 8.91411 3.456C9.41811 3.456 9.86611 3.546 10.2581 3.726C10.6501 3.902 10.9741 4.142 11.2301 4.446C11.4861 4.75 11.6661 5.092 11.7701 5.472L10.2341 5.982C10.1181 5.726 9.95011 5.512 9.73011 5.34C9.51411 5.168 9.21211 5.082 8.82411 5.082C8.48011 5.082 8.21411 5.146 8.02611 5.274C7.84211 5.398 7.75011 5.58 7.75011 5.82C7.75011 5.976 7.81211 6.11 7.93611 6.222C8.06411 6.33 8.23811 6.428 8.45811 6.516C8.68211 6.604 8.93811 6.698 9.22611 6.798C9.57011 6.914 9.91211 7.042 10.2521 7.182C10.5921 7.322 10.9001 7.494 11.1761 7.698C11.4561 7.902 11.6781 8.156 11.8421 8.46C12.0101 8.764 12.0941 9.14 12.0941 9.588C12.0941 10.128 11.9581 10.588 11.6861 10.968C11.4141 11.348 11.0441 11.64 10.5761 11.844C10.1121 12.044 9.59011 12.144 9.01011 12.144ZM16.6497 12V5.256H14.2497V3.6H20.7837V5.256H18.3777V12H16.6497ZM26.9265 12.144C26.2145 12.144 25.6005 12.012 25.0845 11.748C24.5685 11.484 24.1725 11.102 23.8965 10.602C23.6205 10.098 23.4825 9.49 23.4825 8.778V3.6H25.2105V8.778C25.2105 9.386 25.3465 9.822 25.6185 10.086C25.8945 10.346 26.3305 10.476 26.9265 10.476C27.3025 10.476 27.6165 10.422 27.8685 10.314C28.1245 10.206 28.3165 10.028 28.4445 9.78C28.5725 9.528 28.6365 9.194 28.6365 8.778V3.6H30.3645V8.778C30.3645 9.39 30.2685 9.91 30.0765 10.338C29.8885 10.766 29.6325 11.114 29.3085 11.382C28.9845 11.646 28.6165 11.84 28.2045 11.964C27.7965 12.084 27.3705 12.144 26.9265 12.144ZM33.6192 12V3.6H36.6312C37.3632 3.6 37.9872 3.718 38.5032 3.954C39.0192 4.19 39.4392 4.51 39.7632 4.914C40.0872 5.314 40.3232 5.764 40.4712 6.264C40.6192 6.764 40.6932 7.276 40.6932 7.8C40.6932 8.276 40.6212 8.76 40.4772 9.252C40.3372 9.744 40.1072 10.198 39.7872 10.614C39.4712 11.03 39.0512 11.366 38.5272 11.622C38.0032 11.874 37.3552 12 36.5832 12H33.6192ZM35.3472 10.356H36.7512C37.1472 10.356 37.4812 10.28 37.7532 10.128C38.0292 9.976 38.2512 9.774 38.4192 9.522C38.5872 9.27 38.7092 8.994 38.7852 8.694C38.8652 8.394 38.9052 8.096 38.9052 7.8C38.9052 7.488 38.8652 7.18 38.7852 6.876C38.7052 6.572 38.5832 6.296 38.4192 6.048C38.2592 5.8 38.0512 5.602 37.7952 5.454C37.5392 5.306 37.2352 5.232 36.8832 5.232H35.3472V10.356ZM45.3225 12V8.73L42.1665 3.6H44.1105L46.1745 6.912L48.2325 3.6H50.1765L47.0265 8.724V12H45.3225ZM56.7595 12V3.6H58.4875V6.852H61.8955V3.6H63.6235V12H61.8955V8.502H58.4875V12H56.7595ZM66.9065 12V3.6H72.8105V5.238H68.6345V6.846H71.0165V8.484H68.6345V10.35H73.0565V12H66.9065ZM75.9051 12V3.6H77.6331V10.332H81.6711V12H75.9051ZM84.1654 12V3.6H87.8254C88.5374 3.6 89.1054 3.732 89.5294 3.996C89.9534 4.256 90.2574 4.59 90.4414 4.998C90.6254 5.406 90.7174 5.832 90.7174 6.276C90.7174 6.584 90.6634 6.896 90.5554 7.212C90.4474 7.524 90.2774 7.812 90.0454 8.076C89.8174 8.336 89.5194 8.546 89.1514 8.706C88.7834 8.866 88.3414 8.946 87.8254 8.946H85.8934V12H84.1654ZM85.8934 7.32H87.8974C88.1494 7.32 88.3514 7.268 88.5034 7.164C88.6554 7.06 88.7654 6.928 88.8334 6.768C88.9014 6.604 88.9354 6.44 88.9354 6.276C88.9354 6.124 88.9034 5.968 88.8394 5.808C88.7794 5.644 88.6734 5.506 88.5214 5.394C88.3694 5.282 88.1614 5.226 87.8974 5.226H85.8934V7.32ZM93.3164 12V3.6H99.2204V5.238H95.0444V6.846H97.4264V8.484H95.0444V10.35H99.4664V12H93.3164ZM102.315 12V3.6H106.311C107.015 3.6 107.573 3.724 107.985 3.972C108.401 4.216 108.697 4.542 108.873 4.95C109.053 5.354 109.143 5.792 109.143 6.264C109.143 6.58 109.083 6.9 108.963 7.224C108.847 7.548 108.671 7.844 108.435 8.112C108.199 8.376 107.907 8.572 107.559 8.7L109.167 12H107.235L105.687 8.958H104.043V12H102.315ZM104.043 7.332H106.335C106.591 7.332 106.793 7.282 106.941 7.182C107.093 7.082 107.199 6.952 107.259 6.792C107.323 6.628 107.355 6.454 107.355 6.27C107.355 6.102 107.325 5.938 107.265 5.778C107.209 5.618 107.105 5.486 106.953 5.382C106.805 5.278 106.599 5.226 106.335 5.226H104.043V7.332Z" fill="#343A40"/>
</svg>
