<svg width="632" height="632" viewBox="0 0 632 632" fill="none" xmlns="http://www.w3.org/2000/svg">
<rect width="632" height="632" fill="#F8F9FA"/>
<path d="M152 233C190.679 205.216 212.356 204.785 251 233" stroke="#2A5042" stroke-width="9" stroke-linecap="round" stroke-linejoin="round"/>
<path d="M201 451C291.252 493.338 341.83 493.994 432 451" stroke="#2A5042" stroke-width="9" stroke-linecap="round"/>
<path d="M121.275 447.069L454 114.344C454 114.344 495.105 59.1969 533.5 97.5914C571.895 135.986 516.747 177.091 516.747 177.091L184.022 509.816C184.022 509.816 96.4857 556.296 85.6404 545.451C74.7952 534.606 121.275 447.069 121.275 447.069Z" fill="#FFB775"/>
<path d="M121.275 447.069L454 114.344M121.275 447.069C121.275 447.069 74.7952 534.606 85.6404 545.451C96.4857 556.296 184.022 509.816 184.022 509.816M121.275 447.069L152.648 478.443L184.022 509.816M454 114.344L516.747 177.091M454 114.344C454 114.344 495.105 59.1969 533.5 97.5914C571.895 135.986 516.747 177.091 516.747 177.091M516.747 177.091L184.022 509.816M516.747 177.091V177.091C526.158 186.641 526.518 201.834 517.466 211.723C496.67 234.444 459.076 275.015 425.5 308.591" stroke="#FF8210" stroke-width="14" stroke-linecap="round" stroke-linejoin="round"/>
</svg>
