<svg width="24" height="25" viewBox="0 0 24 25" fill="none" xmlns="http://www.w3.org/2000/svg">
<g id="bell" clip-path="url(#clip0_885_3668)">
<path id="Vector" d="M12 24.7822C12.7956 24.7822 13.5587 24.4662 14.1213 23.9035C14.6839 23.3409 15 22.5779 15 21.7822H9C9 22.5779 9.31607 23.3409 9.87868 23.9035C10.4413 24.4662 11.2044 24.7822 12 24.7822Z" fill="#212529"/>
<path id="Vector_2" fill-rule="evenodd" clip-rule="evenodd" d="M12 3.65907L10.8045 3.90057C9.44844 4.17687 8.2295 4.91323 7.35398 5.98501C6.47846 7.05679 6.00015 8.39815 6 9.78207C6 10.7241 5.799 13.0776 5.3115 15.3951C5.0715 16.5456 4.7475 17.7441 4.317 18.7821H19.683C19.2525 17.7441 18.93 16.5471 18.6885 15.3951C18.201 13.0776 18 10.7241 18 9.78207C17.9995 8.39841 17.521 7.0574 16.6455 5.98593C15.7701 4.91446 14.5513 4.17832 13.1955 3.90207L12 3.65757V3.65907ZM21.33 18.7821C21.6645 19.4526 22.0515 19.9836 22.5 20.2821H1.5C1.9485 19.9836 2.3355 19.4526 2.67 18.7821C4.02 16.0821 4.5 11.1021 4.5 9.78207C4.5 6.15207 7.08 3.12207 10.5075 2.43057C10.4866 2.222 10.5096 2.01136 10.5751 1.81223C10.6405 1.6131 10.747 1.42991 10.8876 1.27446C11.0283 1.11901 11.1999 0.994766 11.3915 0.909731C11.5831 0.824696 11.7904 0.780762 12 0.780762C12.2096 0.780762 12.4169 0.824696 12.6085 0.909731C12.8001 0.994766 12.9717 1.11901 13.1124 1.27446C13.253 1.42991 13.3595 1.6131 13.4249 1.81223C13.4904 2.01136 13.5134 2.222 13.4925 2.43057C15.1879 2.77543 16.7121 3.69561 17.8069 5.03533C18.9016 6.37504 19.4998 8.05194 19.5 9.78207C19.5 11.1021 19.98 16.0821 21.33 18.7821Z" fill="#212529"/>
</g>
<defs>
<clipPath id="clip0_885_3668">
<rect width="24" height="24" fill="white" transform="translate(0 0.782227)"/>
</clipPath>
</defs>
</svg>
