<svg width="24" height="24" viewBox="0 0 24 24" fill="none" xmlns="http://www.w3.org/2000/svg">
<g id="check2-circle">
<rect width="24" height="24" fill="white"/>
<path id="Vector" fill-rule="evenodd" clip-rule="evenodd" d="M23.03 3.96839C23.0998 4.03806 23.1553 4.12082 23.1931 4.21194C23.2309 4.30305 23.2503 4.40074 23.2503 4.49939C23.2503 4.59804 23.2309 4.69572 23.1931 4.78684C23.1553 4.87796 23.0998 4.96072 23.03 5.03039L12.53 15.5304C12.4603 15.6002 12.3776 15.6556 12.2864 15.6935C12.1953 15.7313 12.0976 15.7507 11.999 15.7507C11.9003 15.7507 11.8027 15.7313 11.7115 15.6935C11.6204 15.6556 11.5377 15.6002 11.468 15.5304L6.96799 11.0304C6.89826 10.9607 6.84295 10.8779 6.80521 10.7868C6.76747 10.6957 6.74805 10.598 6.74805 10.4994C6.74805 10.4008 6.76747 10.3031 6.80521 10.212C6.84295 10.1209 6.89826 10.0381 6.96799 9.96839C7.03773 9.89865 7.12051 9.84334 7.21162 9.8056C7.30273 9.76786 7.40038 9.74844 7.49899 9.74844C7.59761 9.74844 7.69526 9.76786 7.78637 9.8056C7.87748 9.84334 7.96026 9.89865 8.02999 9.96839L11.999 13.9389L21.968 3.96839C22.0377 3.89854 22.1204 3.84313 22.2115 3.80532C22.3027 3.76751 22.4003 3.74805 22.499 3.74805C22.5976 3.74805 22.6953 3.76751 22.7864 3.80532C22.8776 3.84313 22.9603 3.89854 23.03 3.96839Z" fill="black"/>
<path id="Vector_2" fill-rule="evenodd" clip-rule="evenodd" d="M12 3.75029C10.3683 3.75029 8.77326 4.23414 7.41656 5.14067C6.05985 6.04719 5.00243 7.33566 4.37801 8.84315C3.75358 10.3506 3.59021 12.0094 3.90854 13.6098C4.22686 15.2101 5.0126 16.6801 6.16638 17.8339C7.32017 18.9877 8.79018 19.7734 10.3905 20.0918C11.9909 20.4101 13.6497 20.2467 15.1572 19.6223C16.6646 18.9979 17.9531 17.9404 18.8596 16.5837C19.7662 15.227 20.25 13.632 20.25 12.0003C20.25 11.8014 20.329 11.6106 20.4697 11.47C20.6103 11.3293 20.8011 11.2503 21 11.2503C21.1989 11.2503 21.3897 11.3293 21.5303 11.47C21.671 11.6106 21.75 11.8014 21.75 12.0003C21.7497 14.1465 21.0413 16.2327 19.7345 17.9353C18.4278 19.6379 16.5958 20.8618 14.5226 21.4171C12.4494 21.9723 10.2509 21.8281 8.26813 21.0066C6.28531 20.1851 4.62896 18.7323 3.55595 16.8735C2.48294 15.0147 2.05324 12.8538 2.33349 10.7259C2.61373 8.59806 3.58826 6.62211 5.10594 5.10452C6.62362 3.58694 8.59964 2.61254 10.7275 2.33243C12.8554 2.05232 15.0163 2.48216 16.875 3.55529C16.9646 3.60218 17.0439 3.66671 17.1079 3.745C17.1719 3.8233 17.2195 3.91374 17.2477 4.01089C17.2759 4.10803 17.2841 4.20988 17.2719 4.31029C17.2597 4.4107 17.2273 4.50761 17.1767 4.59519C17.1261 4.68276 17.0583 4.75919 16.9773 4.81988C16.8964 4.88056 16.8041 4.92425 16.7058 4.94832C16.6076 4.97238 16.5055 4.97633 16.4056 4.95991C16.3058 4.94349 16.2104 4.90705 16.125 4.85279C14.8714 4.12783 13.4482 3.74746 12 3.75029Z" fill="black"/>
</g>
</svg>
