<svg width="16" height="16" viewBox="0 0 16 16" fill="none" xmlns="http://www.w3.org/2000/svg">
<g id="chevron-right">
<path id="Vector" fill-rule="evenodd" clip-rule="evenodd" d="M4.64567 1.64592C4.69212 1.59935 4.74729 1.56241 4.80804 1.5372C4.86878 1.512 4.93391 1.49902 4.99967 1.49902C5.06544 1.49902 5.13056 1.512 5.19131 1.5372C5.25205 1.56241 5.30723 1.59935 5.35367 1.64592L11.3537 7.64592C11.4002 7.69236 11.4372 7.74754 11.4624 7.80828C11.4876 7.86903 11.5006 7.93415 11.5006 7.99992C11.5006 8.06568 11.4876 8.13081 11.4624 8.19155C11.4372 8.2523 11.4002 8.30747 11.3537 8.35392L5.35367 14.3539C5.25979 14.4478 5.13245 14.5005 4.99967 14.5005C4.8669 14.5005 4.73956 14.4478 4.64567 14.3539C4.55179 14.26 4.49904 14.1327 4.49904 13.9999C4.49904 13.8671 4.55179 13.7398 4.64567 13.6459L10.2927 7.99992L4.64567 2.35392C4.59911 2.30747 4.56217 2.2523 4.53696 2.19155C4.51175 2.13081 4.49878 2.06568 4.49878 1.99992C4.49878 1.93415 4.51175 1.86903 4.53696 1.80828C4.56217 1.74754 4.59911 1.69236 4.64567 1.64592Z" fill="#FF8210"/>
</g>
</svg>
