<svg width="24" height="25" viewBox="0 0 24 25" fill="none" xmlns="http://www.w3.org/2000/svg">
<g id="chevron-left">
<path id="Vector" fill-rule="evenodd" clip-rule="evenodd" d="M17.0304 2.96839C17.1002 3.03806 17.1556 3.12082 17.1935 3.21194C17.2313 3.30305 17.2507 3.40074 17.2507 3.49939C17.2507 3.59804 17.2313 3.69572 17.1935 3.78684C17.1556 3.87796 17.1002 3.96072 17.0304 4.03039L8.55989 12.4994L17.0304 20.9684C17.1712 21.1092 17.2503 21.3002 17.2503 21.4994C17.2503 21.6986 17.1712 21.8896 17.0304 22.0304C16.8896 22.1712 16.6986 22.2503 16.4994 22.2503C16.3002 22.2503 16.1092 22.1712 15.9684 22.0304L6.96839 13.0304C6.89854 12.9607 6.84313 12.878 6.80532 12.7868C6.76751 12.6957 6.74805 12.598 6.74805 12.4994C6.74805 12.4007 6.76751 12.3031 6.80532 12.2119C6.84313 12.1208 6.89854 12.0381 6.96839 11.9684L15.9684 2.96839C16.0381 2.89854 16.1208 2.84313 16.2119 2.80532C16.3031 2.76751 16.4007 2.74805 16.4994 2.74805C16.598 2.74805 16.6957 2.76751 16.7868 2.80532C16.878 2.84313 16.9607 2.89854 17.0304 2.96839Z" fill="#212529"/>
</g>
</svg>
