<svg width="16" height="16" viewBox="0 0 16 16" fill="none" xmlns="http://www.w3.org/2000/svg">
<g id="Component 2" clip-path="url(#clip0_671_131)">
<path id="Vector" fill-rule="evenodd" clip-rule="evenodd" d="M8.00112 2.74722L7.28412 2.01022C5.60112 0.280225 2.51512 0.877225 1.40112 3.05222C0.878116 4.07522 0.760116 5.55222 1.71512 7.43722C2.63512 9.25222 4.54912 11.4262 8.00112 13.7942C11.4531 11.4262 13.3661 9.25222 14.2871 7.43722C15.2421 5.55122 15.1251 4.07522 14.6011 3.05222C13.4871 0.877225 10.4011 0.279225 8.71812 2.00922L8.00112 2.74722ZM8.00112 14.9992C-7.33188 4.86722 3.28012 -3.04078 7.82512 1.14222C7.88512 1.19722 7.94412 1.25422 8.00112 1.31322C8.05754 1.25428 8.11625 1.19757 8.17712 1.14322C12.7211 -3.04278 23.3341 4.86622 8.00112 14.9992Z" fill="#FF8210"/>
</g>
<defs>
<clipPath id="clip0_671_131">
<rect width="16" height="16" fill="white"/>
</clipPath>
</defs>
</svg>
